<?xml version="1.0" standalone="no"?>
<!DOCTYPE svg PUBLIC "-//W3C//DTD SVG 20010904//EN"
 "http://www.w3.org/TR/2001/REC-SVG-20010904/DTD/svg10.dtd">
<svg version="1.0" xmlns="http://www.w3.org/2000/svg"
 width="1024.000000pt" height="768.000000pt" viewBox="0 0 1024.000000 768.000000"
 preserveAspectRatio="xMidYMid meet">

<g transform="translate(0.000000,768.000000) scale(0.100000,-0.100000)"
fill="#000000" stroke="none">
<path d="M0 3840 l0 -3840 5120 0 5120 0 0 3840 0 3840 -5120 0 -5120 0 0
-3840z m5273 1172 c136 -67 224 -205 234 -367 8 -129 -23 -246 -98 -370 -44
-72 -178 -216 -179 -192 0 12 4 16 13 11 9 -6 9 -4 1 7 -13 18 -12 38 2 47 6
4 18 21 27 37 9 17 28 44 44 61 29 31 82 131 107 201 74 209 -39 471 -216 503
-44 8 -158 -5 -168 -19 -3 -4 -16 -14 -29 -21 -25 -13 -110 -74 -124 -89 -76
-80 -90 -113 -90 -210 0 -133 42 -239 145 -362 27 -33 43 -58 36 -57 -7 2 -12
-5 -12 -15 2 -14 -1 -15 -12 -6 -8 6 -11 16 -7 22 3 5 1 7 -5 4 -11 -7 -101
106 -144 183 -64 111 -83 250 -52 380 19 80 49 134 107 187 83 77 158 104 274
100 67 -3 92 -9 146 -35z m774 -32 c151 -74 233 -225 220 -401 -7 -82 -37
-179 -81 -253 -49 -84 -59 -39 -12 58 15 32 35 92 43 134 14 67 14 83 0 152
-26 132 -108 233 -227 280 -139 55 -290 16 -424 -109 l-38 -36 16 31 c17 35
100 105 159 135 112 58 238 61 344 9z m-1656 10 c30 -6 77 -21 104 -35 54 -26
149 -104 166 -136 9 -18 8 -19 -20 -7 -16 7 -48 30 -70 51 -23 21 -41 35 -41
32 0 -3 -10 0 -22 7 -13 7 -25 13 -28 13 -3 1 -22 4 -43 9 -50 10 -140 -10
-191 -41 -39 -24 -136 -117 -182 -174 -12 -14 -31 -57 -44 -95 -43 -133 -1
-267 130 -416 24 -28 38 -54 37 -68 -1 -20 -10 -13 -68 48 -121 130 -173 260
-167 425 3 89 7 110 34 167 53 112 115 167 233 207 75 26 96 27 172 13z m1742
-744 c-10 -13 -20 -22 -22 -20 -4 4 29 44 36 44 2 0 -4 -11 -14 -24z m-1053
-142 c0 -2 -9 0 -20 6 -11 6 -20 13 -20 16 0 2 9 0 20 -6 11 -6 20 -13 20 -16z
m-29 -31 c13 -16 12 -17 -3 -4 -17 13 -22 21 -14 21 2 0 10 -8 17 -17z m174
-14 c2 -3 -8 -18 -24 -33 -23 -22 -29 -24 -34 -12 -4 11 1 18 19 22 19 5 22 9
14 19 -8 10 -7 13 4 11 9 -1 18 -4 21 -7z m-134 -26 c13 -16 12 -17 -3 -4 -17
13 -22 21 -14 21 2 0 10 -8 17 -17z m1460 -778 c54 -29 58 -93 7 -129 -30 -22
-60 -20 -92 5 -20 16 -26 29 -26 59 0 30 6 43 26 59 32 25 45 26 85 6z m639
-17 c0 -5 0 -159 0 -343 l0 -335 -55 0 c-52 0 -55 1 -55 25 l0 25 -41 -27
c-78 -52 -203 -41 -281 25 -67 57 -97 183 -66 284 18 59 85 123 149 142 29 9
65 16 80 16 35 0 108 -26 131 -47 17 -15 18 -11 18 109 0 68 3 128 7 132 9 9
113 3 113 -6z m-3900 -308 l0 -270 154 0 154 0 4 -37 c3 -21 3 -44 0 -50 -3
-10 -57 -13 -223 -13 l-219 0 0 320 0 320 65 0 65 0 0 -270z m2449 225 c135
-74 159 -235 52 -346 -56 -57 -92 -69 -233 -76 l-108 -6 0 -83 0 -84 -60 0
-60 0 0 316 0 316 178 -4 c175 -3 178 -3 231 -33z m-1747 -125 c129 -48 197
-186 153 -311 -36 -102 -114 -159 -229 -167 -162 -10 -280 95 -279 248 0 78
18 122 73 175 71 70 184 92 282 55z m1091 -7 c77 -31 137 -130 137 -227 l0
-36 -185 0 c-102 0 -185 -4 -185 -9 0 -4 10 -23 23 -42 39 -58 139 -76 212
-39 l40 21 28 -33 c15 -18 26 -37 24 -43 -2 -5 -25 -20 -50 -34 -69 -35 -165
-39 -239 -11 -102 38 -149 103 -155 215 -4 62 -1 76 24 124 63 122 191 166
326 114z m-786 5 c6 -7 34 -69 63 -138 29 -69 59 -138 67 -154 l15 -29 45 99
c25 55 59 129 75 167 l31 67 60 0 c43 0 58 -3 54 -12 -37 -87 -189 -433 -197
-448 -9 -17 -21 -20 -70 -20 -33 0 -60 1 -60 3 0 1 -43 101 -96 222 -52 121
-98 228 -101 238 -5 15 2 17 50 17 32 0 59 -5 64 -12z m1943 -10 c86 -44 99
-86 100 -305 l0 -153 -60 0 c-53 0 -60 2 -60 20 0 19 -1 19 -37 -3 -55 -32
-174 -32 -221 1 -62 45 -76 104 -43 178 25 56 75 76 204 82 53 2 97 8 97 13 0
16 -25 64 -40 77 -21 18 -150 10 -180 -11 -23 -16 -24 -16 -48 24 -28 47 -25
52 44 79 72 28 186 27 244 -2z m340 -218 l0 -240 -60 0 -60 0 0 240 0 240 60
0 60 0 0 -240z"/>
<path d="M5265 4140 c-4 -6 -11 -7 -17 -4 -7 4 -8 2 -4 -4 10 -16 23 -15 30 3
6 17 0 20 -9 5z"/>
<path d="M6905 2943 c-79 -20 -127 -124 -95 -208 38 -99 184 -113 240 -23 17
26 20 45 18 95 -3 53 -8 67 -33 93 -24 25 -85 53 -105 49 -3 -1 -14 -4 -25 -6z"/>
<path d="M5450 2966 l0 -126 93 0 c109 0 153 17 180 70 21 41 17 93 -10 122
-33 37 -76 51 -170 56 l-93 5 0 -127z"/>
<path d="M3835 2931 c-53 -27 -78 -70 -79 -137 0 -62 21 -99 75 -127 42 -22
110 -18 148 10 138 102 8 331 -144 254z"/>
<path d="M4909 2934 c-27 -17 -59 -63 -59 -83 0 -7 41 -11 125 -11 113 0 125
2 125 18 0 10 -13 33 -28 51 -25 30 -35 35 -83 38 -39 3 -61 -1 -80 -13z"/>
<path d="M6086 2760 c-63 -12 -85 -61 -46 -100 39 -39 153 -17 165 33 16 67
13 72 -35 74 -25 0 -63 -2 -84 -7z"/>
</g>
</svg>
